<svg width="240" height="240" viewBox="0 0 240 240" fill="none" xmlns="http://www.w3.org/2000/svg">
  <g transform="translate(27.5, 109.3) scale(0.2179) translate(0, 0)">
    
<g clip-path="url(#clip0_2008_145)">
<mask id="mask0_2008_145" style="mask-type:luminance" maskUnits="userSpaceOnUse" x="-4" y="0" width="855" height="98">
<path d="M850.077 0H-3.26562V98H850.077V0Z" fill="white"/>
</mask>
<g mask="url(#mask0_2008_145)">
<path d="M73.1445 2.84283V24.6315H94.9246C96.3614 24.6315 97.537 25.8075 97.537 27.2448V97.8048H121.929V2.84283C121.929 1.40549 120.754 0.229492 119.317 0.229492H75.7568C74.3201 0.229492 73.1445 1.37283 73.1445 2.84283Z" fill="white"/>
<path d="M23.3148 1.27482L1.24085 23.3901C0.457154 24.1741 0 25.2521 0 26.3628V95.1915C0 96.6288 1.17554 97.8048 2.61231 97.8048H73.1446V73.4028H27.0047C25.568 73.4028 24.3924 72.2268 24.3924 70.7894V27.2122C24.3924 25.7748 25.568 24.5988 27.0047 24.5988H48.7848V2.84283C48.7848 1.40549 47.6093 0.229492 46.1725 0.229492H25.9272C24.9149 0.229492 24.0006 0.588824 23.3148 1.27482Z" fill="white"/>
<path d="M48.752 24.5982V47.4321C48.752 48.2814 49.4377 49.0001 50.3193 49.0001H71.6096C72.4586 49.0001 73.177 48.3141 73.177 47.4321V24.5982L60.9971 12.3809L48.752 24.5982Z" fill="white"/>
<path d="M171.53 14.9942C167.024 16.9216 163.073 19.5676 159.808 22.8669C156.542 26.1662 153.93 30.1189 152.003 34.5942C150.077 39.1349 149.097 43.9042 149.097 48.8042V49.1962C149.097 55.7622 150.763 61.9689 153.995 67.6202C157.261 73.2716 161.767 77.7796 167.383 81.0136C173.032 84.2802 179.204 85.9136 185.8 85.9136H232.528V67.9469H187.106C181.914 67.9469 177.408 66.0849 173.718 62.4262C170.028 58.7676 168.167 54.2596 168.167 49.0329C168.167 43.8062 170.028 39.2982 173.718 35.5742C177.408 31.8829 181.914 30.0209 187.106 30.0209H232.593V12.0869H185.833C180.869 12.0869 176.069 13.0669 171.53 14.9942Z" fill="white"/>
<path d="M302.669 12.0869H262.406C256.463 12.0869 251.337 14.2102 247.124 18.4242C242.912 22.6382 240.79 27.7669 240.79 33.7122V64.3536C240.79 70.2989 242.912 75.4276 247.124 79.6416C251.337 83.8556 256.463 85.9789 262.406 85.9789H302.669C308.612 85.9789 313.738 83.8556 317.951 79.6416C322.163 75.4276 324.285 70.2989 324.285 64.3536V33.7122C324.285 27.7669 322.163 22.6382 317.951 18.4242C313.738 14.2102 308.612 12.0869 302.669 12.0869ZM305.15 37.0442V61.0216C305.15 63.0142 304.497 64.5496 303.126 65.9216C301.722 67.3262 300.154 67.9469 298.13 67.9469H266.913C264.888 67.9469 263.353 67.3262 261.949 65.9216C260.578 64.5496 259.925 63.0142 259.925 61.0216V37.0442C259.925 35.0516 260.545 33.5162 261.949 32.1442C263.386 30.7396 264.921 30.1189 266.945 30.1189H298.162C300.187 30.1189 301.722 30.7396 303.126 32.1442C304.53 33.5489 305.15 35.0516 305.15 37.0442Z" fill="white"/>
<path d="M670.873 12.0869H630.611C624.668 12.0869 619.541 14.2102 615.329 18.4242C611.117 22.6382 608.994 27.7669 608.994 33.7122V64.3536C608.994 70.2989 611.117 75.4276 615.329 79.6416C619.541 83.8556 624.668 85.9789 630.611 85.9789H670.873C676.816 85.9789 681.943 83.8556 686.155 79.6416C690.368 75.4276 692.49 70.2989 692.49 64.3536V33.7122C692.49 27.7669 690.368 22.6382 686.155 18.4242C681.943 14.2102 676.816 12.0869 670.873 12.0869ZM673.355 37.0442V61.0216C673.355 63.0142 672.702 64.5496 671.33 65.9216C669.926 67.3262 668.392 67.9469 666.367 67.9469H635.15C633.125 67.9469 631.591 67.3262 630.154 65.9216C628.782 64.5496 628.129 63.0142 628.129 61.0216V37.0442C628.129 35.0516 628.75 33.5162 630.154 32.1442C631.558 30.7396 633.125 30.1189 635.15 30.1189H666.367C668.392 30.1189 669.926 30.7396 671.33 32.1442C672.734 33.5489 673.355 35.0516 673.355 37.0442Z" fill="white"/>
<path d="M390.769 12.0869H333.037V85.9462H390.769C395.438 85.9462 399.781 84.7702 403.7 82.4836C407.585 80.1969 410.72 77.0609 413.006 73.1736C415.324 69.2536 416.467 64.9089 416.467 60.2376V37.7956C416.467 30.6742 414.018 24.7616 408.924 19.6656C403.895 14.5369 397.952 12.0869 390.769 12.0869ZM397.397 37.8282V60.2702C397.397 62.4589 396.712 64.1576 395.112 65.6929C393.512 67.2609 391.814 67.9469 389.593 67.9469H352.041V30.0536H389.593C390.703 30.0536 391.716 30.2496 392.663 30.6742C393.61 31.0662 394.426 31.6216 395.079 32.3076C395.765 33.0262 396.32 33.8756 396.744 34.8556C397.169 35.8029 397.397 36.7829 397.397 37.8282Z" fill="white"/>
<path d="M431.717 18.6529C427.309 23.0956 425.153 28.2569 425.153 34.4636V63.5696C425.153 69.7762 427.309 74.9376 431.717 79.3802C436.125 83.7902 441.317 85.9462 447.521 85.9462H508.617V67.9796H449.84C448.24 67.9796 446.966 67.4569 445.856 66.3136C444.713 65.1702 444.191 63.8962 444.191 62.3282V58.0162H497.286L497.351 40.0496L444.191 40.1476V35.7376C444.191 34.1369 444.713 32.8629 445.856 31.7522C446.999 30.6089 448.272 30.0862 449.84 30.0862L508.617 30.1189V12.0869H447.521C441.317 12.0869 436.158 14.2102 431.717 18.6529Z" fill="white"/>
<path d="M722.532 66.3136C721.389 65.1702 720.866 63.8962 720.866 62.3282V12.0869H701.862V63.5696C701.862 69.7762 704.017 74.9376 708.425 79.3802C712.866 83.7902 718.025 85.9462 724.23 85.9462H784.672V67.9796H726.515C724.915 67.9796 723.642 67.4242 722.532 66.3136Z" fill="white"/>
<path d="M829.277 12.0869C827.514 12.0869 825.946 12.8382 824.901 14.1776L807.595 34.6269L790.354 14.2429C789.243 12.8382 787.709 12.0869 785.913 12.0869H765.863V31.0989H780.362L797.766 51.6789C798.093 52.0709 798.223 52.4629 798.223 52.9529V85.9462H816.967V52.9529C816.967 52.4302 817.097 52.0382 817.456 51.6789L834.828 31.0989H849.327V12.0869H829.277Z" fill="white"/>
<path d="M563.932 21.4963L563.214 25.057L558.577 48.1849L553.94 25.057L551.328 12.0557H516.845V85.9149H535.589V31.1003H536.209L548.324 85.9149H569.026L573.761 64.4529L581.108 31.1003H581.565V85.9149H600.308V12.0557H565.793L563.932 21.4963Z" fill="white"/>
</g>
</g>
<defs>
<clipPath id="clip0_2008_145">
<rect width="849" height="98" fill="white"/>
</clipPath>
</defs>
</svg>

  </g>
</svg>